<svg width="29" height="24" viewBox="0 0 29 24" fill="none" xmlns="http://www.w3.org/2000/svg">
<path d="M18.8332 10.6569L14.0602 6.70692C13.8401 6.51832 13.7183 6.26571 13.7211 6.00352C13.7239 5.74132 13.8509 5.49051 14.075 5.3051C14.299 5.11969 14.6021 5.01452 14.9189 5.01224C15.2357 5.00997 15.5409 5.11076 15.7688 5.29292L22.6044 10.9499C22.717 11.0426 22.8063 11.1527 22.8673 11.2741C22.9283 11.3954 22.9597 11.5255 22.9597 11.6569C22.9597 11.7883 22.9283 11.9184 22.8673 12.0398C22.8063 12.1611 22.717 12.2713 22.6044 12.3639L15.7688 18.0209C15.6574 18.1164 15.524 18.1926 15.3766 18.245C15.2292 18.2974 15.0706 18.325 14.9102 18.3262C14.7498 18.3273 14.5906 18.302 14.4421 18.2517C14.2936 18.2015 14.1587 18.1272 14.0453 18.0333C13.9318 17.9394 13.8421 17.8278 13.7813 17.7049C13.7206 17.582 13.69 17.4503 13.6914 17.3175C13.6928 17.1847 13.7261 17.0535 13.7895 16.9315C13.8528 16.8095 13.9448 16.6992 14.0602 16.6069L18.8332 12.6569H7.25008C6.92961 12.6569 6.62227 12.5516 6.39566 12.364C6.16905 12.1765 6.04175 11.9221 6.04175 11.6569C6.04175 11.3917 6.16905 11.1373 6.39566 10.9498C6.62227 10.7623 6.92961 10.6569 7.25008 10.6569H18.8332Z" fill="white"/>
</svg>
