<svg width="29" height="24" viewBox="0 0 29 24" fill="none" xmlns="http://www.w3.org/2000/svg">
<path d="M18.4416 10.6569L13.8788 6.70692C13.6684 6.51832 13.552 6.26571 13.5546 6.00352C13.5573 5.74132 13.6787 5.49051 13.8929 5.3051C14.1071 5.11969 14.3968 5.01452 14.6997 5.01224C15.0025 5.00997 15.2943 5.11076 15.5122 5.29292L22.0468 10.9499C22.1544 11.0426 22.2398 11.1527 22.2981 11.2741C22.3564 11.3954 22.3864 11.5255 22.3864 11.6569C22.3864 11.7883 22.3564 11.9184 22.2981 12.0398C22.2398 12.1611 22.1544 12.2713 22.0468 12.3639L15.5122 18.0209C15.4056 18.1164 15.2782 18.1926 15.1372 18.245C14.9963 18.2974 14.8447 18.325 14.6914 18.3262C14.538 18.3273 14.3859 18.302 14.2439 18.2517C14.102 18.2015 13.973 18.1272 13.8645 18.0333C13.7561 17.9394 13.6703 17.8278 13.6122 17.7049C13.5541 17.582 13.5249 17.4503 13.5262 17.3175C13.5276 17.1847 13.5594 17.0535 13.62 16.9315C13.6805 16.8095 13.7685 16.6992 13.8788 16.6069L18.4416 12.6569H7.36851C7.06215 12.6569 6.76834 12.5516 6.55171 12.364C6.33508 12.1765 6.21338 11.9221 6.21338 11.6569C6.21338 11.3917 6.33508 11.1373 6.55171 10.9498C6.76834 10.7623 7.06215 10.6569 7.36851 10.6569H18.4416V10.6569Z" fill="#00A8A8"/>
</svg>
