<svg width="72" height="65" viewBox="0 0 72 65" fill="none" xmlns="http://www.w3.org/2000/svg">
<path d="M64.8 25.2V18C64.8 17.0452 64.4207 16.1295 63.7456 15.4544C63.0705 14.7793 62.1548 14.4 61.2 14.4H57.6V18C57.6 18.9548 57.2207 19.8705 56.5456 20.5456C55.8704 21.2207 54.9548 21.6 54 21.6C53.0452 21.6 52.1295 21.2207 51.4544 20.5456C50.7793 19.8705 50.4 18.9548 50.4 18V14.4H21.6V18C21.6 18.9548 21.2207 19.8705 20.5456 20.5456C19.8705 21.2207 18.9548 21.6 18 21.6C17.0452 21.6 16.1295 21.2207 15.4544 20.5456C14.7793 19.8705 14.4 18.9548 14.4 18V14.4H10.8C9.84522 14.4 8.92955 14.7793 8.25442 15.4544C7.57928 16.1295 7.2 17.0452 7.2 18V25.2H64.8ZM64.8 32.4H7.2V54C7.2 54.9548 7.57928 55.8705 8.25442 56.5456C8.92955 57.2207 9.84522 57.6 10.8 57.6H61.2C62.1548 57.6 63.0705 57.2207 63.7456 56.5456C64.4207 55.8705 64.8 54.9548 64.8 54V32.4ZM57.6 7.2H61.2C64.0643 7.2 66.8114 8.33785 68.8368 10.3632C70.8621 12.3886 72 15.1357 72 18V54C72 56.8643 70.8621 59.6114 68.8368 61.6368C66.8114 63.6622 64.0643 64.8 61.2 64.8H10.8C7.93566 64.8 5.18864 63.6622 3.16325 61.6368C1.13785 59.6114 0 56.8643 0 54L0 18C0 15.1357 1.13785 12.3886 3.16325 10.3632C5.18864 8.33785 7.93566 7.2 10.8 7.2H14.4V3.6C14.4 2.64522 14.7793 1.72955 15.4544 1.05442C16.1295 0.379285 17.0452 0 18 0C18.9548 0 19.8705 0.379285 20.5456 1.05442C21.2207 1.72955 21.6 2.64522 21.6 3.6V7.2H50.4V3.6C50.4 2.64522 50.7793 1.72955 51.4544 1.05442C52.1295 0.379285 53.0452 0 54 0C54.9548 0 55.8704 0.379285 56.5456 1.05442C57.2207 1.72955 57.6 2.64522 57.6 3.6V7.2Z" fill="#C1C7CD"/>
</svg>
