<svg width="74" height="65" viewBox="0 0 74 65" fill="none" xmlns="http://www.w3.org/2000/svg">
<path d="M55.5 24.3674V56.8735H48.1V24.3674H25.9V56.8735H18.5V24.3674C15.5561 24.3674 12.7328 25.6517 10.6511 27.9377C8.56946 30.2237 7.4 33.3243 7.4 36.5572V44.6837C7.4 47.9166 8.56946 51.0172 10.6511 53.3032C12.7328 55.5892 15.5561 56.8735 18.5 56.8735H55.5C58.4439 56.8735 61.2672 55.5892 63.3489 53.3032C65.4305 51.0172 66.6 47.9166 66.6 44.6837V36.5572C66.6 33.3243 65.4305 30.2237 63.3489 27.9377C61.2672 25.6517 58.4439 24.3674 55.5 24.3674ZM26.529 16.2409H47.471C46.7015 13.8672 45.282 11.8133 43.4072 10.3609C41.5324 8.90843 39.2943 8.12871 37 8.12871C34.7057 8.12871 32.4676 8.90843 30.5928 10.3609C28.718 11.8133 27.2985 13.8672 26.529 16.2409ZM18.87 16.2409C19.7265 11.6549 21.9983 7.53427 25.3016 4.57517C28.6049 1.61608 32.7371 0 37 0C41.2629 0 45.3951 1.61608 48.6984 4.57517C52.0017 7.53427 54.2735 11.6549 55.13 16.2409H55.5C60.4065 16.2409 65.1121 18.3813 68.5815 22.1914C72.0509 26.0014 74 31.169 74 36.5572V44.6837C74 50.0719 72.0509 55.2394 68.5815 59.0495C65.1121 62.8595 60.4065 65 55.5 65H18.5C13.5935 65 8.88795 62.8595 5.41852 59.0495C1.9491 55.2394 0 50.0719 0 44.6837L0 36.5572C0 31.169 1.9491 26.0014 5.41852 22.1914C8.88795 18.3813 13.5935 16.2409 18.5 16.2409H18.87Z" fill="#C1C7CD"/>
</svg>
