<svg width="74" height="65" viewBox="0 0 74 65" fill="none" xmlns="http://www.w3.org/2000/svg">
<path d="M51.8026 55.25H22.2011V60.125C22.2011 61.4179 21.6164 62.6579 20.5755 63.5721C19.5346 64.4864 18.1229 65 16.6508 65H12.9506C11.4786 65 10.0669 64.4864 9.02601 63.5721C7.98513 62.6579 7.40037 61.4179 7.40037 60.125V54.6975C5.23549 54.0247 3.36132 52.779 2.03599 51.1318C0.710654 49.4846 -0.000662067 47.517 4.62396e-07 45.5V35.75C4.62396e-07 33.735 0.695635 31.863 1.88709 30.3095L5.9055 8.2095C6.32279 5.91885 7.65628 3.83394 9.66644 2.32925C11.6766 0.824564 14.2317 -0.00129955 16.8728 1.53497e-06H57.1309C59.77 0.00191571 62.322 0.829637 64.3291 2.33471C66.3363 3.83977 67.6673 5.92371 68.0834 8.21275L72.0907 30.2803C73.297 31.8403 74 33.7253 74 35.75V45.5C74.0007 47.517 73.2893 49.4846 71.964 51.1318C70.6387 52.779 68.7645 54.0247 66.5996 54.6975V60.125C66.5996 61.4179 66.0149 62.6579 64.974 63.5721C63.9331 64.4864 62.5214 65 61.0494 65H57.3492C55.8771 65 54.4654 64.4864 53.4245 63.5721C52.3836 62.6579 51.7989 61.4179 51.7989 60.125V55.25H51.8026ZM11.1006 48.75H62.9031C63.8845 48.75 64.8257 48.4076 65.5196 47.7981C66.2135 47.1886 66.6033 46.362 66.6033 45.5V35.75C66.6033 34.888 66.2135 34.0614 65.5196 33.4519C64.8257 32.8424 63.8845 32.5 62.9031 32.5H11.1006C10.1192 32.5 9.17805 32.8424 8.48413 33.4519C7.79021 34.0614 7.40037 34.888 7.40037 35.75V45.5C7.40037 46.362 7.79021 47.1886 8.48413 47.7981C9.17805 48.4076 10.1192 48.75 11.1006 48.75ZM63.8282 26.0325L60.7792 9.2365C60.6403 8.47406 60.1969 7.77995 59.5284 7.27853C58.8599 6.7771 58.01 6.50111 57.1309 6.5H16.8691C15.9888 6.49957 15.1371 6.77486 14.467 7.27642C13.797 7.77798 13.3525 8.47295 13.2134 9.2365L10.1607 26.0357C10.4733 26.0123 10.7868 26.0004 11.1006 26H62.9031C63.214 26 63.5248 26.0098 63.8282 26.0325ZM57.3529 39C56.8622 39 56.3916 39.1712 56.0447 39.476C55.6977 39.7807 55.5028 40.194 55.5028 40.625C55.5028 41.056 55.6977 41.4693 56.0447 41.774C56.3916 42.0788 56.8622 42.25 57.3529 42.25C57.8435 42.25 58.3141 42.0788 58.6611 41.774C59.008 41.4693 59.203 41.056 59.203 40.625C59.203 40.194 59.008 39.7807 58.6611 39.476C58.3141 39.1712 57.8435 39 57.3529 39ZM57.3529 45.5C56.624 45.5 55.9023 45.3739 55.2289 45.1289C54.5555 44.8839 53.9436 44.5248 53.4282 44.0721C52.9128 43.6195 52.504 43.082 52.2251 42.4906C51.9461 41.8991 51.8026 41.2652 51.8026 40.625C51.8026 39.9848 51.9461 39.3509 52.2251 38.7594C52.504 38.168 52.9128 37.6305 53.4282 37.1779C53.9436 36.7252 54.5555 36.3661 55.2289 36.1211C55.9023 35.8761 56.624 35.75 57.3529 35.75C58.8249 35.75 60.2366 36.2636 61.2775 37.1779C62.3184 38.0921 62.9031 39.3321 62.9031 40.625C62.9031 41.9179 62.3184 43.1579 61.2775 44.0721C60.2366 44.9864 58.8249 45.5 57.3529 45.5ZM16.6508 39C16.1602 39 15.6896 39.1712 15.3426 39.476C14.9957 39.7807 14.8007 40.194 14.8007 40.625C14.8007 41.056 14.9957 41.4693 15.3426 41.774C15.6896 42.0788 16.1602 42.25 16.6508 42.25C17.1415 42.25 17.6121 42.0788 17.959 41.774C18.306 41.4693 18.5009 41.056 18.5009 40.625C18.5009 40.194 18.306 39.7807 17.959 39.476C17.6121 39.1712 17.1415 39 16.6508 39ZM16.6508 45.5C15.922 45.5 15.2002 45.3739 14.5268 45.1289C13.8534 44.8839 13.2416 44.5248 12.7262 44.0721C12.2108 43.6195 11.802 43.082 11.523 42.4906C11.2441 41.8991 11.1006 41.2652 11.1006 40.625C11.1006 39.9848 11.2441 39.3509 11.523 38.7594C11.802 38.168 12.2108 37.6305 12.7262 37.1779C13.2416 36.7252 13.8534 36.3661 14.5268 36.1211C15.2002 35.8761 15.922 35.75 16.6508 35.75C18.1229 35.75 19.5346 36.2636 20.5755 37.1779C21.6164 38.0921 22.2011 39.3321 22.2011 40.625C22.2011 41.9179 21.6164 43.1579 20.5755 44.0721C19.5346 44.9864 18.1229 45.5 16.6508 45.5ZM19.2558 10.0555C20.2371 10.0555 21.1783 10.3979 21.8722 11.0074C22.5661 11.6169 22.9559 12.4435 22.9559 13.3055V19.8055C22.9559 20.6675 22.5661 21.4941 21.8722 22.1036C21.1783 22.7131 20.2371 23.0555 19.2558 23.0555C18.2744 23.0555 17.3333 22.7131 16.6393 22.1036C15.9454 21.4941 15.5556 20.6675 15.5556 19.8055V13.3055C15.5556 12.4435 15.9454 11.6169 16.6393 11.0074C17.3333 10.3979 18.2744 10.0555 19.2558 10.0555Z" fill="#C1C7CD"/>
</svg>
