<svg width="74" height="65" viewBox="0 0 74 65" fill="none" xmlns="http://www.w3.org/2000/svg">
<path d="M26.3292 38.8383L22.2 7.0589L18.0708 38.8347H3.7C1.6576 38.8347 0 37.2568 0 35.3105C0.0117108 34.3636 0.407885 33.46 1.10157 32.7979C1.79525 32.1358 2.72977 31.7694 3.7 31.779H11.5292L14.8592 6.19229C15.355 2.32142 19.055 -0.422856 23.1065 0.0537808C26.4735 0.450978 29.1227 2.9786 29.5408 6.19229L32.8671 31.779H40.1709L44.4 57.9435L48.6254 31.7826H70.3C72.3424 31.7826 74 33.3642 74 35.3141C74 37.264 72.3424 38.8419 70.3 38.8419H54.9746L51.7149 59.016C51.46 60.5133 50.7229 61.8925 49.6105 62.9535C48.4981 64.0144 47.0683 64.7019 45.5285 64.9161C41.4881 65.5119 37.7104 62.8688 37.0851 59.016L33.8291 38.8419H26.3255L26.3292 38.8383Z" fill="#C1C7CD"/>
</svg>
