<svg width="49" height="48" viewBox="0 0 49 48" fill="none" xmlns="http://www.w3.org/2000/svg">
<path d="M24.3335 40C28.577 40 32.6466 38.3143 35.6472 35.3137C38.6478 32.3131 40.3335 28.2435 40.3335 24C40.3335 19.7565 38.6478 15.6869 35.6472 12.6863C32.6466 9.68571 28.577 8 24.3335 8C20.09 8 16.0204 9.68571 13.0198 12.6863C10.0192 15.6869 8.3335 19.7565 8.3335 24C8.3335 28.2435 10.0192 32.3131 13.0198 35.3137C16.0204 38.3143 20.09 40 24.3335 40V40ZM24.3335 44C13.2875 44 4.3335 35.046 4.3335 24C4.3335 12.954 13.2875 4 24.3335 4C35.3795 4 44.3335 12.954 44.3335 24C44.3335 35.046 35.3795 44 24.3335 44ZM22.3335 6H26.3335V26H22.3335V6ZM22.3335 22H42.3335V26H22.3335V22Z" fill="#161E21"/>
</svg>
