<svg width="49" height="48" viewBox="0 0 49 48" fill="none" xmlns="http://www.w3.org/2000/svg">
<path d="M26.6666 28H30.6666C31.197 28 31.7057 28.2107 32.0808 28.5858C32.4559 28.9609 32.6666 29.4696 32.6666 30C32.6666 30.5304 32.4559 31.0391 32.0808 31.4142C31.7057 31.7893 31.197 32 30.6666 32H24.6666C24.1362 32 23.6275 31.7893 23.2524 31.4142C22.8773 31.0391 22.6666 30.5304 22.6666 30V22C22.6666 21.4696 22.8773 20.9609 23.2524 20.5858C23.6275 20.2107 24.1362 20 24.6666 20C25.197 20 25.7057 20.2107 26.0808 20.5858C26.4559 20.9609 26.6666 21.4696 26.6666 22V28ZM22.6666 13.464V12C22.6666 11.4696 22.8773 10.9609 23.2524 10.5858C23.6275 10.2107 24.1362 10 24.6666 10C25.197 10 25.7057 10.2107 26.0808 10.5858C26.4559 10.9609 26.6666 11.4696 26.6666 12V13.464C27.4292 13.0237 28.0252 12.3441 28.3621 11.5306C28.6991 10.7171 28.7582 9.81516 28.5303 8.96463C28.3024 8.1141 27.8002 7.36253 27.1017 6.82649C26.4031 6.29046 25.5471 5.99991 24.6666 5.99991C23.7861 5.99991 22.9301 6.29046 22.2316 6.82649C21.533 7.36253 21.0308 8.1141 20.8029 8.96463C20.575 9.81516 20.6341 10.7171 20.9711 11.5306C21.3081 12.3441 21.904 13.0237 22.6666 13.464V13.464ZM18.5846 15.196C17.5914 14.0336 16.952 12.611 16.7423 11.0965C16.5325 9.58201 16.7611 8.03913 17.4011 6.65056C18.041 5.26198 19.0654 4.08587 20.3531 3.26148C21.6407 2.4371 23.1377 1.99896 24.6666 1.99896C26.1955 1.99896 27.6925 2.4371 28.9801 3.26148C30.2678 4.08587 31.2922 5.26198 31.9322 6.65056C32.5721 8.03913 32.8007 9.58201 32.591 11.0965C32.3812 12.611 31.7419 14.0336 30.7486 15.196C34.175 16.6059 37.006 19.161 38.7587 22.4254C40.5114 25.6897 41.0772 29.4611 40.3595 33.096C39.6418 36.731 37.6851 40.0043 34.8233 42.3575C31.9614 44.7108 28.3717 45.9982 24.6666 46C20.9589 46.0029 17.3653 44.7179 14.5 42.3649C11.6347 40.0118 9.67554 36.7367 8.95736 33.0993C8.23917 29.4618 8.80655 25.6878 10.5625 22.4223C12.3185 19.1568 15.1541 16.6025 18.5846 15.196V15.196ZM24.6666 42C26.2425 42 27.8029 41.6896 29.2588 41.0866C30.7147 40.4835 32.0376 39.5996 33.1519 38.4853C34.2662 37.371 35.1501 36.0481 35.7532 34.5922C36.3562 33.1363 36.6666 31.5759 36.6666 30C36.6666 28.4241 36.3562 26.8637 35.7532 25.4078C35.1501 23.9519 34.2662 22.629 33.1519 21.5147C32.0376 20.4004 30.7147 19.5165 29.2588 18.9135C27.8029 18.3104 26.2425 18 24.6666 18C21.484 18 18.4318 19.2643 16.1813 21.5147C13.9309 23.7652 12.6666 26.8174 12.6666 30C12.6666 33.1826 13.9309 36.2349 16.1813 38.4853C18.4318 40.7357 21.484 42 24.6666 42V42Z" fill="#161E21"/>
</svg>
